G04 (created by PCBNEW (22-Jun-2014 BZR 4027)-stable) date Sat 24 Feb 2018 09:18:46 AM CST*
%MOIN*%
G04 Gerber Fmt 3.4, Leading zero omitted, Abs format*
%FSLAX34Y34*%
G01*
G70*
G90*
G04 APERTURE LIST*
%ADD10C,0.00590551*%
%ADD11C,0.008*%
%ADD12C,0.006*%
%ADD13C,0.01*%
%ADD14C,0.005*%
G04 APERTURE END LIST*
G54D10*
G54D11*
X61661Y-48428D02*
X61661Y-48619D01*
X61261Y-48619D01*
X61261Y-48352D02*
X61261Y-48123D01*
X61661Y-48238D02*
X61261Y-48238D01*
X61661Y-47780D02*
X61661Y-48009D01*
X61661Y-47895D02*
X61261Y-47895D01*
X61319Y-47933D01*
X61357Y-47971D01*
X61376Y-48009D01*
X61261Y-47647D02*
X61261Y-47380D01*
X61661Y-47552D01*
X61261Y-47057D02*
X61261Y-47133D01*
X61280Y-47171D01*
X61300Y-47190D01*
X61357Y-47228D01*
X61433Y-47247D01*
X61585Y-47247D01*
X61623Y-47228D01*
X61642Y-47209D01*
X61661Y-47171D01*
X61661Y-47095D01*
X61642Y-47057D01*
X61623Y-47038D01*
X61585Y-47019D01*
X61490Y-47019D01*
X61452Y-47038D01*
X61433Y-47057D01*
X61414Y-47095D01*
X61414Y-47171D01*
X61433Y-47209D01*
X61452Y-47228D01*
X61490Y-47247D01*
X61261Y-46885D02*
X61261Y-46638D01*
X61414Y-46771D01*
X61414Y-46714D01*
X61433Y-46676D01*
X61452Y-46657D01*
X61490Y-46638D01*
X61585Y-46638D01*
X61623Y-46657D01*
X61642Y-46676D01*
X61661Y-46714D01*
X61661Y-46828D01*
X61642Y-46866D01*
X61623Y-46885D01*
X61642Y-46180D02*
X61661Y-46123D01*
X61661Y-46028D01*
X61642Y-45990D01*
X61623Y-45971D01*
X61585Y-45952D01*
X61547Y-45952D01*
X61509Y-45971D01*
X61490Y-45990D01*
X61471Y-46028D01*
X61452Y-46104D01*
X61433Y-46142D01*
X61414Y-46161D01*
X61376Y-46180D01*
X61338Y-46180D01*
X61300Y-46161D01*
X61280Y-46142D01*
X61261Y-46104D01*
X61261Y-46009D01*
X61280Y-45952D01*
X61395Y-45609D02*
X61661Y-45609D01*
X61395Y-45780D02*
X61604Y-45780D01*
X61642Y-45761D01*
X61661Y-45723D01*
X61661Y-45666D01*
X61642Y-45628D01*
X61623Y-45609D01*
X61395Y-45419D02*
X61795Y-45419D01*
X61414Y-45419D02*
X61395Y-45380D01*
X61395Y-45304D01*
X61414Y-45266D01*
X61433Y-45247D01*
X61471Y-45228D01*
X61585Y-45228D01*
X61623Y-45247D01*
X61642Y-45266D01*
X61661Y-45304D01*
X61661Y-45380D01*
X61642Y-45419D01*
X61395Y-45057D02*
X61795Y-45057D01*
X61414Y-45057D02*
X61395Y-45019D01*
X61395Y-44942D01*
X61414Y-44904D01*
X61433Y-44885D01*
X61471Y-44866D01*
X61585Y-44866D01*
X61623Y-44885D01*
X61642Y-44904D01*
X61661Y-44942D01*
X61661Y-45019D01*
X61642Y-45057D01*
X61661Y-44638D02*
X61642Y-44676D01*
X61604Y-44695D01*
X61261Y-44695D01*
X61395Y-44523D02*
X61661Y-44428D01*
X61395Y-44333D02*
X61661Y-44428D01*
X61757Y-44466D01*
X61776Y-44485D01*
X61795Y-44523D01*
X61395Y-43914D02*
X61661Y-43819D01*
X61395Y-43723D01*
X61661Y-43361D02*
X61661Y-43590D01*
X61661Y-43476D02*
X61261Y-43476D01*
X61319Y-43514D01*
X61357Y-43552D01*
X61376Y-43590D01*
G54D12*
X54621Y-45157D02*
X54321Y-45157D01*
X54621Y-45014D02*
X54321Y-45014D01*
X54621Y-44842D01*
X54321Y-44842D01*
G54D11*
X54509Y-44402D02*
X54509Y-44097D01*
X54509Y-41402D02*
X54509Y-41097D01*
X54661Y-41250D02*
X54357Y-41250D01*
X60759Y-52402D02*
X60759Y-52097D01*
X60911Y-52250D02*
X60607Y-52250D01*
X60759Y-53402D02*
X60759Y-53097D01*
G54D12*
X61321Y-51300D02*
X61321Y-51242D01*
X61335Y-51214D01*
X61364Y-51185D01*
X61421Y-51171D01*
X61521Y-51171D01*
X61578Y-51185D01*
X61607Y-51214D01*
X61621Y-51242D01*
X61621Y-51300D01*
X61607Y-51328D01*
X61578Y-51357D01*
X61521Y-51371D01*
X61421Y-51371D01*
X61364Y-51357D01*
X61335Y-51328D01*
X61321Y-51300D01*
X61321Y-51042D02*
X61564Y-51042D01*
X61592Y-51028D01*
X61607Y-51014D01*
X61621Y-50985D01*
X61621Y-50928D01*
X61607Y-50899D01*
X61592Y-50885D01*
X61564Y-50871D01*
X61321Y-50871D01*
X61321Y-50771D02*
X61321Y-50599D01*
X61621Y-50685D02*
X61321Y-50685D01*
G54D13*
X55000Y-41750D02*
X55000Y-43750D01*
X55000Y-43750D02*
X54000Y-43750D01*
X54000Y-43750D02*
X54000Y-41750D01*
X54000Y-41750D02*
X55000Y-41750D01*
X62000Y-51750D02*
X62000Y-53750D01*
X62000Y-53750D02*
X61000Y-53750D01*
X61000Y-53750D02*
X61000Y-51750D01*
X61000Y-51750D02*
X62000Y-51750D01*
X56750Y-50250D02*
X56750Y-49850D01*
X56750Y-49850D02*
X56350Y-49850D01*
X56350Y-49850D02*
X56350Y-46650D01*
X56350Y-46650D02*
X57150Y-46650D01*
X57150Y-46650D02*
X57150Y-49850D01*
X57150Y-49850D02*
X56750Y-49850D01*
X56750Y-46250D02*
X56750Y-46650D01*
X55750Y-46250D02*
X55750Y-46650D01*
X55750Y-46650D02*
X56150Y-46650D01*
X56150Y-46650D02*
X56150Y-49850D01*
X56150Y-49850D02*
X55350Y-49850D01*
X55350Y-49850D02*
X55350Y-46650D01*
X55350Y-46650D02*
X55750Y-46650D01*
X55750Y-50250D02*
X55750Y-49850D01*
X56750Y-41250D02*
X56750Y-41650D01*
X56750Y-41650D02*
X57150Y-41650D01*
X57150Y-41650D02*
X57150Y-44850D01*
X57150Y-44850D02*
X56350Y-44850D01*
X56350Y-44850D02*
X56350Y-41650D01*
X56350Y-41650D02*
X56750Y-41650D01*
X56750Y-45250D02*
X56750Y-44850D01*
X54750Y-50250D02*
X54750Y-49850D01*
X54750Y-49850D02*
X54350Y-49850D01*
X54350Y-49850D02*
X54350Y-46650D01*
X54350Y-46650D02*
X55150Y-46650D01*
X55150Y-46650D02*
X55150Y-49850D01*
X55150Y-49850D02*
X54750Y-49850D01*
X54750Y-46250D02*
X54750Y-46650D01*
X55250Y-40500D02*
X57750Y-40500D01*
X55250Y-39000D02*
X57750Y-39000D01*
X55250Y-39750D02*
X55250Y-39000D01*
X57750Y-39000D02*
X57750Y-40500D01*
X55250Y-40500D02*
X55250Y-39750D01*
X58500Y-39750D02*
X57750Y-39750D01*
X54500Y-39750D02*
X55250Y-39750D01*
X60000Y-52000D02*
G75*
G03X60000Y-52000I-1000J0D01*
G74*
G01*
X57500Y-43250D02*
X57500Y-46250D01*
X60500Y-43250D02*
X60500Y-46250D01*
X60500Y-46250D02*
X57500Y-46250D01*
X57500Y-43250D02*
X60500Y-43250D01*
X60500Y-49750D02*
X60500Y-50750D01*
X57500Y-49750D02*
X57500Y-50750D01*
X60500Y-50750D02*
X57500Y-50750D01*
X57500Y-49750D02*
X60500Y-49750D01*
G54D14*
X58350Y-48500D02*
G75*
G03X58350Y-48500I-100J0D01*
G74*
G01*
X59950Y-47300D02*
X59950Y-48700D01*
X58050Y-47300D02*
X58050Y-48700D01*
X58050Y-48700D02*
X59950Y-48700D01*
X58050Y-47300D02*
X59950Y-47300D01*
G54D13*
X62000Y-41250D02*
G75*
G03X62000Y-41250I-1750J0D01*
G74*
G01*
X57500Y-52500D02*
G75*
G03X57500Y-52500I-1750J0D01*
G74*
G01*
X55750Y-41250D02*
X55750Y-41650D01*
X55750Y-41650D02*
X56150Y-41650D01*
X56150Y-41650D02*
X56150Y-44850D01*
X56150Y-44850D02*
X55350Y-44850D01*
X55350Y-44850D02*
X55350Y-41650D01*
X55350Y-41650D02*
X55750Y-41650D01*
X55750Y-45250D02*
X55750Y-44850D01*
G54D12*
X56871Y-49100D02*
X56728Y-49200D01*
X56871Y-49271D02*
X56571Y-49271D01*
X56571Y-49157D01*
X56585Y-49128D01*
X56600Y-49114D01*
X56628Y-49100D01*
X56671Y-49100D01*
X56700Y-49114D01*
X56714Y-49128D01*
X56728Y-49157D01*
X56728Y-49271D01*
X56871Y-48814D02*
X56871Y-48985D01*
X56871Y-48900D02*
X56571Y-48900D01*
X56614Y-48928D01*
X56642Y-48957D01*
X56657Y-48985D01*
X56571Y-47614D02*
X56571Y-47585D01*
X56585Y-47557D01*
X56600Y-47542D01*
X56628Y-47528D01*
X56685Y-47514D01*
X56757Y-47514D01*
X56814Y-47528D01*
X56842Y-47542D01*
X56857Y-47557D01*
X56871Y-47585D01*
X56871Y-47614D01*
X56857Y-47642D01*
X56842Y-47657D01*
X56814Y-47671D01*
X56757Y-47685D01*
X56685Y-47685D01*
X56628Y-47671D01*
X56600Y-47657D01*
X56585Y-47642D01*
X56571Y-47614D01*
X56871Y-47214D02*
X56728Y-47314D01*
X56871Y-47385D02*
X56571Y-47385D01*
X56571Y-47271D01*
X56585Y-47242D01*
X56600Y-47228D01*
X56628Y-47214D01*
X56671Y-47214D01*
X56700Y-47228D01*
X56714Y-47242D01*
X56728Y-47271D01*
X56728Y-47385D01*
X55871Y-47500D02*
X55728Y-47600D01*
X55871Y-47671D02*
X55571Y-47671D01*
X55571Y-47557D01*
X55585Y-47528D01*
X55600Y-47514D01*
X55628Y-47500D01*
X55671Y-47500D01*
X55700Y-47514D01*
X55714Y-47528D01*
X55728Y-47557D01*
X55728Y-47671D01*
X55600Y-47385D02*
X55585Y-47371D01*
X55571Y-47342D01*
X55571Y-47271D01*
X55585Y-47242D01*
X55600Y-47228D01*
X55628Y-47214D01*
X55657Y-47214D01*
X55700Y-47228D01*
X55871Y-47400D01*
X55871Y-47214D01*
X55571Y-49414D02*
X55571Y-49228D01*
X55685Y-49328D01*
X55685Y-49285D01*
X55700Y-49257D01*
X55714Y-49242D01*
X55742Y-49228D01*
X55814Y-49228D01*
X55842Y-49242D01*
X55857Y-49257D01*
X55871Y-49285D01*
X55871Y-49371D01*
X55857Y-49399D01*
X55842Y-49414D01*
X55571Y-49128D02*
X55571Y-48942D01*
X55685Y-49042D01*
X55685Y-48999D01*
X55700Y-48971D01*
X55714Y-48957D01*
X55742Y-48942D01*
X55814Y-48942D01*
X55842Y-48957D01*
X55857Y-48971D01*
X55871Y-48999D01*
X55871Y-49085D01*
X55857Y-49114D01*
X55842Y-49128D01*
X55871Y-48814D02*
X55571Y-48814D01*
X55757Y-48785D02*
X55871Y-48700D01*
X55671Y-48700D02*
X55785Y-48814D01*
X56871Y-42499D02*
X56871Y-42642D01*
X56571Y-42642D01*
X56871Y-42242D02*
X56871Y-42414D01*
X56871Y-42328D02*
X56571Y-42328D01*
X56614Y-42357D01*
X56642Y-42385D01*
X56657Y-42414D01*
X56871Y-44542D02*
X56871Y-44714D01*
X56871Y-44628D02*
X56571Y-44628D01*
X56614Y-44657D01*
X56642Y-44685D01*
X56657Y-44714D01*
X56571Y-44357D02*
X56571Y-44328D01*
X56585Y-44300D01*
X56600Y-44285D01*
X56628Y-44271D01*
X56685Y-44257D01*
X56757Y-44257D01*
X56814Y-44271D01*
X56842Y-44285D01*
X56857Y-44300D01*
X56871Y-44328D01*
X56871Y-44357D01*
X56857Y-44385D01*
X56842Y-44400D01*
X56814Y-44414D01*
X56757Y-44428D01*
X56685Y-44428D01*
X56628Y-44414D01*
X56600Y-44400D01*
X56585Y-44385D01*
X56571Y-44357D01*
X56571Y-44071D02*
X56571Y-44042D01*
X56585Y-44014D01*
X56600Y-44000D01*
X56628Y-43985D01*
X56685Y-43971D01*
X56757Y-43971D01*
X56814Y-43985D01*
X56842Y-44000D01*
X56857Y-44014D01*
X56871Y-44042D01*
X56871Y-44071D01*
X56857Y-44100D01*
X56842Y-44114D01*
X56814Y-44128D01*
X56757Y-44142D01*
X56685Y-44142D01*
X56628Y-44128D01*
X56600Y-44114D01*
X56585Y-44100D01*
X56571Y-44071D01*
X56671Y-43714D02*
X56871Y-43714D01*
X56671Y-43842D02*
X56828Y-43842D01*
X56857Y-43828D01*
X56871Y-43800D01*
X56871Y-43757D01*
X56857Y-43728D01*
X56842Y-43714D01*
X56871Y-43571D02*
X56571Y-43571D01*
X56714Y-43571D02*
X56714Y-43400D01*
X56871Y-43400D02*
X56571Y-43400D01*
X54871Y-49100D02*
X54728Y-49200D01*
X54871Y-49271D02*
X54571Y-49271D01*
X54571Y-49157D01*
X54585Y-49128D01*
X54600Y-49114D01*
X54628Y-49100D01*
X54671Y-49100D01*
X54700Y-49114D01*
X54714Y-49128D01*
X54728Y-49157D01*
X54728Y-49271D01*
X54571Y-49000D02*
X54571Y-48814D01*
X54685Y-48914D01*
X54685Y-48871D01*
X54700Y-48842D01*
X54714Y-48828D01*
X54742Y-48814D01*
X54814Y-48814D01*
X54842Y-48828D01*
X54857Y-48842D01*
X54871Y-48871D01*
X54871Y-48957D01*
X54857Y-48985D01*
X54842Y-49000D01*
X54671Y-47728D02*
X54871Y-47728D01*
X54557Y-47800D02*
X54771Y-47871D01*
X54771Y-47685D01*
X54842Y-47571D02*
X54857Y-47557D01*
X54871Y-47571D01*
X54857Y-47585D01*
X54842Y-47571D01*
X54871Y-47571D01*
X54571Y-47457D02*
X54571Y-47257D01*
X54871Y-47385D01*
X54871Y-47142D02*
X54571Y-47142D01*
X54757Y-47114D02*
X54871Y-47028D01*
X54671Y-47028D02*
X54785Y-47142D01*
X55785Y-39414D02*
X55685Y-39414D01*
X55685Y-39571D02*
X55685Y-39271D01*
X55828Y-39271D01*
X55942Y-39414D02*
X56042Y-39414D01*
X56085Y-39571D02*
X55942Y-39571D01*
X55942Y-39271D01*
X56085Y-39271D01*
X56385Y-39571D02*
X56285Y-39428D01*
X56214Y-39571D02*
X56214Y-39271D01*
X56328Y-39271D01*
X56357Y-39285D01*
X56371Y-39300D01*
X56385Y-39328D01*
X56385Y-39371D01*
X56371Y-39400D01*
X56357Y-39414D01*
X56328Y-39428D01*
X56214Y-39428D01*
X56685Y-39571D02*
X56585Y-39428D01*
X56514Y-39571D02*
X56514Y-39271D01*
X56628Y-39271D01*
X56657Y-39285D01*
X56671Y-39300D01*
X56685Y-39328D01*
X56685Y-39371D01*
X56671Y-39400D01*
X56657Y-39414D01*
X56628Y-39428D01*
X56514Y-39428D01*
X56814Y-39571D02*
X56814Y-39271D01*
X56914Y-39271D02*
X57085Y-39271D01*
X57000Y-39571D02*
X57000Y-39271D01*
X57185Y-39414D02*
X57285Y-39414D01*
X57328Y-39571D02*
X57185Y-39571D01*
X57185Y-39271D01*
X57328Y-39271D01*
X56107Y-40114D02*
X56150Y-40128D01*
X56164Y-40142D01*
X56178Y-40171D01*
X56178Y-40214D01*
X56164Y-40242D01*
X56150Y-40257D01*
X56121Y-40271D01*
X56007Y-40271D01*
X56007Y-39971D01*
X56107Y-39971D01*
X56135Y-39985D01*
X56150Y-40000D01*
X56164Y-40028D01*
X56164Y-40057D01*
X56150Y-40085D01*
X56135Y-40100D01*
X56107Y-40114D01*
X56007Y-40114D01*
X56307Y-40114D02*
X56407Y-40114D01*
X56450Y-40271D02*
X56307Y-40271D01*
X56307Y-39971D01*
X56450Y-39971D01*
X56564Y-40185D02*
X56707Y-40185D01*
X56535Y-40271D02*
X56635Y-39971D01*
X56735Y-40271D01*
X56835Y-40271D02*
X56835Y-39971D01*
X56907Y-39971D01*
X56950Y-39985D01*
X56978Y-40014D01*
X56992Y-40042D01*
X57007Y-40100D01*
X57007Y-40142D01*
X56992Y-40200D01*
X56978Y-40228D01*
X56950Y-40257D01*
X56907Y-40271D01*
X56835Y-40271D01*
G54D14*
X58958Y-51527D02*
X58946Y-51539D01*
X58910Y-51551D01*
X58886Y-51551D01*
X58851Y-51539D01*
X58827Y-51515D01*
X58815Y-51491D01*
X58803Y-51444D01*
X58803Y-51408D01*
X58815Y-51360D01*
X58827Y-51336D01*
X58851Y-51313D01*
X58886Y-51301D01*
X58910Y-51301D01*
X58946Y-51313D01*
X58958Y-51325D01*
X59053Y-51325D02*
X59065Y-51313D01*
X59089Y-51301D01*
X59148Y-51301D01*
X59172Y-51313D01*
X59184Y-51325D01*
X59196Y-51348D01*
X59196Y-51372D01*
X59184Y-51408D01*
X59041Y-51551D01*
X59196Y-51551D01*
X58732Y-52701D02*
X58589Y-52701D01*
X58660Y-52701D02*
X58660Y-52451D01*
X58636Y-52486D01*
X58613Y-52510D01*
X58589Y-52522D01*
X58886Y-52451D02*
X58910Y-52451D01*
X58934Y-52463D01*
X58946Y-52475D01*
X58958Y-52498D01*
X58970Y-52546D01*
X58970Y-52605D01*
X58958Y-52653D01*
X58946Y-52677D01*
X58934Y-52689D01*
X58910Y-52701D01*
X58886Y-52701D01*
X58863Y-52689D01*
X58851Y-52677D01*
X58839Y-52653D01*
X58827Y-52605D01*
X58827Y-52546D01*
X58839Y-52498D01*
X58851Y-52475D01*
X58863Y-52463D01*
X58886Y-52451D01*
X59184Y-52534D02*
X59184Y-52701D01*
X59077Y-52534D02*
X59077Y-52665D01*
X59089Y-52689D01*
X59113Y-52701D01*
X59148Y-52701D01*
X59172Y-52689D01*
X59184Y-52677D01*
X59386Y-52570D02*
X59303Y-52570D01*
X59303Y-52701D02*
X59303Y-52451D01*
X59422Y-52451D01*
G54D12*
X57885Y-51257D02*
X58114Y-51257D01*
X58000Y-51371D02*
X58000Y-51142D01*
X58950Y-44192D02*
X58935Y-44207D01*
X58892Y-44221D01*
X58864Y-44221D01*
X58821Y-44207D01*
X58792Y-44178D01*
X58778Y-44150D01*
X58764Y-44092D01*
X58764Y-44050D01*
X58778Y-43992D01*
X58792Y-43964D01*
X58821Y-43935D01*
X58864Y-43921D01*
X58892Y-43921D01*
X58935Y-43935D01*
X58950Y-43950D01*
X59050Y-43921D02*
X59235Y-43921D01*
X59135Y-44035D01*
X59178Y-44035D01*
X59207Y-44050D01*
X59221Y-44064D01*
X59235Y-44092D01*
X59235Y-44164D01*
X59221Y-44192D01*
X59207Y-44207D01*
X59178Y-44221D01*
X59092Y-44221D01*
X59064Y-44207D01*
X59050Y-44192D01*
X58821Y-44871D02*
X58650Y-44871D01*
X58735Y-44871D02*
X58735Y-44571D01*
X58707Y-44614D01*
X58678Y-44642D01*
X58650Y-44657D01*
X59078Y-44671D02*
X59078Y-44871D01*
X58950Y-44671D02*
X58950Y-44828D01*
X58964Y-44857D01*
X58992Y-44871D01*
X59035Y-44871D01*
X59064Y-44857D01*
X59078Y-44842D01*
X59321Y-44714D02*
X59221Y-44714D01*
X59221Y-44871D02*
X59221Y-44571D01*
X59364Y-44571D01*
X57700Y-49592D02*
X57685Y-49607D01*
X57642Y-49621D01*
X57614Y-49621D01*
X57571Y-49607D01*
X57542Y-49578D01*
X57528Y-49550D01*
X57514Y-49492D01*
X57514Y-49450D01*
X57528Y-49392D01*
X57542Y-49364D01*
X57571Y-49335D01*
X57614Y-49321D01*
X57642Y-49321D01*
X57685Y-49335D01*
X57700Y-49350D01*
X57985Y-49621D02*
X57814Y-49621D01*
X57900Y-49621D02*
X57900Y-49321D01*
X57871Y-49364D01*
X57842Y-49392D01*
X57814Y-49407D01*
X58678Y-50371D02*
X58507Y-50371D01*
X58592Y-50371D02*
X58592Y-50071D01*
X58564Y-50114D01*
X58535Y-50142D01*
X58507Y-50157D01*
X58864Y-50071D02*
X58892Y-50071D01*
X58921Y-50085D01*
X58935Y-50100D01*
X58950Y-50128D01*
X58964Y-50185D01*
X58964Y-50257D01*
X58950Y-50314D01*
X58935Y-50342D01*
X58921Y-50357D01*
X58892Y-50371D01*
X58864Y-50371D01*
X58835Y-50357D01*
X58821Y-50342D01*
X58807Y-50314D01*
X58792Y-50257D01*
X58792Y-50185D01*
X58807Y-50128D01*
X58821Y-50100D01*
X58835Y-50085D01*
X58864Y-50071D01*
X59092Y-50171D02*
X59092Y-50371D01*
X59092Y-50200D02*
X59107Y-50185D01*
X59135Y-50171D01*
X59178Y-50171D01*
X59207Y-50185D01*
X59221Y-50214D01*
X59221Y-50371D01*
X59464Y-50214D02*
X59364Y-50214D01*
X59364Y-50371D02*
X59364Y-50071D01*
X59507Y-50071D01*
G54D14*
X58809Y-48151D02*
X58809Y-48353D01*
X58821Y-48377D01*
X58833Y-48389D01*
X58857Y-48401D01*
X58904Y-48401D01*
X58928Y-48389D01*
X58940Y-48377D01*
X58952Y-48353D01*
X58952Y-48151D01*
X59202Y-48401D02*
X59059Y-48401D01*
X59130Y-48401D02*
X59130Y-48151D01*
X59107Y-48186D01*
X59083Y-48210D01*
X59059Y-48222D01*
X58505Y-47801D02*
X58386Y-47801D01*
X58386Y-47551D01*
X58553Y-47551D02*
X58696Y-47551D01*
X58625Y-47801D02*
X58625Y-47551D01*
X58910Y-47801D02*
X58767Y-47801D01*
X58839Y-47801D02*
X58839Y-47551D01*
X58815Y-47586D01*
X58791Y-47610D01*
X58767Y-47622D01*
X58994Y-47551D02*
X59160Y-47551D01*
X59053Y-47801D01*
X59363Y-47551D02*
X59315Y-47551D01*
X59291Y-47563D01*
X59279Y-47575D01*
X59255Y-47610D01*
X59244Y-47658D01*
X59244Y-47753D01*
X59255Y-47777D01*
X59267Y-47789D01*
X59291Y-47801D01*
X59339Y-47801D01*
X59363Y-47789D01*
X59375Y-47777D01*
X59386Y-47753D01*
X59386Y-47694D01*
X59375Y-47670D01*
X59363Y-47658D01*
X59339Y-47646D01*
X59291Y-47646D01*
X59267Y-47658D01*
X59255Y-47670D01*
X59244Y-47694D01*
X59470Y-47551D02*
X59625Y-47551D01*
X59541Y-47646D01*
X59577Y-47646D01*
X59601Y-47658D01*
X59613Y-47670D01*
X59625Y-47694D01*
X59625Y-47753D01*
X59613Y-47777D01*
X59601Y-47789D01*
X59577Y-47801D01*
X59505Y-47801D01*
X59482Y-47789D01*
X59470Y-47777D01*
G54D12*
X55871Y-42500D02*
X55728Y-42600D01*
X55871Y-42671D02*
X55571Y-42671D01*
X55571Y-42557D01*
X55585Y-42528D01*
X55600Y-42514D01*
X55628Y-42500D01*
X55671Y-42500D01*
X55700Y-42514D01*
X55714Y-42528D01*
X55728Y-42557D01*
X55728Y-42671D01*
X55671Y-42242D02*
X55871Y-42242D01*
X55557Y-42314D02*
X55771Y-42385D01*
X55771Y-42200D01*
X55871Y-44257D02*
X55871Y-44428D01*
X55871Y-44342D02*
X55571Y-44342D01*
X55614Y-44371D01*
X55642Y-44400D01*
X55657Y-44428D01*
X55571Y-44071D02*
X55571Y-44042D01*
X55585Y-44014D01*
X55600Y-44000D01*
X55628Y-43985D01*
X55685Y-43971D01*
X55757Y-43971D01*
X55814Y-43985D01*
X55842Y-44000D01*
X55857Y-44014D01*
X55871Y-44042D01*
X55871Y-44071D01*
X55857Y-44100D01*
X55842Y-44114D01*
X55814Y-44128D01*
X55757Y-44142D01*
X55685Y-44142D01*
X55628Y-44128D01*
X55600Y-44114D01*
X55585Y-44100D01*
X55571Y-44071D01*
X55871Y-43671D02*
X55728Y-43771D01*
X55871Y-43842D02*
X55571Y-43842D01*
X55571Y-43728D01*
X55585Y-43700D01*
X55600Y-43685D01*
X55628Y-43671D01*
X55671Y-43671D01*
X55700Y-43685D01*
X55714Y-43700D01*
X55728Y-43728D01*
X55728Y-43842D01*
M02*
