G04 (created by PCBNEW (22-Jun-2014 BZR 4027)-stable) date Sat 24 Feb 2018 09:18:46 AM CST*
%MOIN*%
G04 Gerber Fmt 3.4, Leading zero omitted, Abs format*
%FSLAX34Y34*%
G01*
G70*
G90*
G04 APERTURE LIST*
%ADD10C,0.00590551*%
%ADD11R,0.069X0.069*%
%ADD12C,0.069*%
%ADD13O,0.059X0.059*%
%ADD14R,0.059X0.059*%
%ADD15C,0.059*%
%ADD16C,0.23622*%
%ADD17C,0.035*%
%ADD18C,0.03*%
%ADD19C,0.01*%
G04 APERTURE END LIST*
G54D10*
G54D11*
X54500Y-42250D03*
G54D12*
X54500Y-43250D03*
G54D11*
X61500Y-52250D03*
G54D12*
X61500Y-53250D03*
G54D13*
X56750Y-50250D03*
X56750Y-46250D03*
X55750Y-46250D03*
X55750Y-50250D03*
X56750Y-41250D03*
X56750Y-45250D03*
X54750Y-50250D03*
X54750Y-46250D03*
G54D12*
X54500Y-39750D03*
X58500Y-39750D03*
G54D14*
X58500Y-52000D03*
G54D13*
X59500Y-52000D03*
G54D15*
X58000Y-44750D03*
X60000Y-44750D03*
X58000Y-50250D03*
X60000Y-50250D03*
G54D16*
X60250Y-41250D03*
X55750Y-52500D03*
G54D13*
X55750Y-41250D03*
X55750Y-45250D03*
G54D17*
X60250Y-46750D03*
G54D18*
X58500Y-52000D02*
X59250Y-52750D01*
X61000Y-52750D02*
X61500Y-52250D01*
X59250Y-52750D02*
X61000Y-52750D01*
X58000Y-50250D02*
X58000Y-51500D01*
X58000Y-51500D02*
X58500Y-52000D01*
X56750Y-50250D02*
X58000Y-50250D01*
X54750Y-50250D02*
X55750Y-50250D01*
X55750Y-46250D02*
X56750Y-46250D01*
X55750Y-45250D02*
X55750Y-44000D01*
X56750Y-43000D02*
X56750Y-41250D01*
X55750Y-44000D02*
X56750Y-43000D01*
X54500Y-42250D02*
X54500Y-39750D01*
G54D19*
X58250Y-44750D02*
X58000Y-44750D01*
X60250Y-46750D02*
X58250Y-44750D01*
G54D18*
X56750Y-45250D02*
X57500Y-45250D01*
X57500Y-45250D02*
X58000Y-44750D01*
X58500Y-39750D02*
X56500Y-39750D01*
X55750Y-40500D02*
X55750Y-41250D01*
X56500Y-39750D02*
X55750Y-40500D01*
M02*
