G04 (created by PCBNEW (22-Jun-2014 BZR 4027)-stable) date Sat 24 Feb 2018 09:18:46 AM CST*
%MOIN*%
G04 Gerber Fmt 3.4, Leading zero omitted, Abs format*
%FSLAX34Y34*%
G01*
G70*
G90*
G04 APERTURE LIST*
%ADD10C,0.00590551*%
%ADD11R,0.069X0.069*%
%ADD12C,0.069*%
%ADD13O,0.059X0.059*%
%ADD14R,0.059X0.059*%
%ADD15C,0.059*%
%ADD16R,0.019X0.07*%
%ADD17C,0.23622*%
%ADD18C,0.035*%
%ADD19C,0.02*%
%ADD20C,0.01*%
G04 APERTURE END LIST*
G54D10*
G54D11*
X54500Y-42250D03*
G54D12*
X54500Y-43250D03*
G54D11*
X61500Y-52250D03*
G54D12*
X61500Y-53250D03*
G54D13*
X56750Y-50250D03*
X56750Y-46250D03*
X55750Y-46250D03*
X55750Y-50250D03*
X56750Y-41250D03*
X56750Y-45250D03*
X54750Y-50250D03*
X54750Y-46250D03*
G54D12*
X54500Y-39750D03*
X58500Y-39750D03*
G54D14*
X58500Y-52000D03*
G54D13*
X59500Y-52000D03*
G54D15*
X58000Y-44750D03*
X60000Y-44750D03*
X58000Y-50250D03*
X60000Y-50250D03*
G54D16*
X58250Y-49150D03*
X58750Y-49150D03*
X59250Y-49150D03*
X59750Y-49150D03*
X59750Y-46850D03*
X59250Y-46850D03*
X58750Y-46850D03*
X58250Y-46850D03*
G54D17*
X60250Y-41250D03*
X55750Y-52500D03*
G54D13*
X55750Y-41250D03*
X55750Y-45250D03*
G54D18*
X60250Y-46750D03*
G54D19*
X58250Y-49150D02*
X58250Y-50000D01*
X58250Y-50000D02*
X58000Y-50250D01*
X59750Y-49150D02*
X59750Y-50000D01*
X59750Y-50000D02*
X60000Y-50250D01*
X58750Y-49150D02*
X58750Y-48500D01*
X55750Y-49750D02*
X55750Y-50250D01*
X56000Y-49500D02*
X55750Y-49750D01*
X57750Y-49500D02*
X56000Y-49500D01*
X57750Y-48500D02*
X57750Y-49500D01*
X58750Y-48500D02*
X57750Y-48500D01*
G54D20*
X59750Y-46850D02*
X60150Y-46850D01*
X60150Y-46850D02*
X60250Y-46750D01*
G54D19*
X58250Y-45000D02*
X58000Y-44750D01*
X58250Y-46850D02*
X58250Y-45000D01*
G54D10*
G36*
X61730Y-51654D02*
X61681Y-51654D01*
X61681Y-40966D01*
X61463Y-40440D01*
X61061Y-40037D01*
X60535Y-39819D01*
X59966Y-39818D01*
X59440Y-40036D01*
X59037Y-40438D01*
X58819Y-40964D01*
X58818Y-41533D01*
X59036Y-42059D01*
X59438Y-42462D01*
X59964Y-42680D01*
X60533Y-42681D01*
X61059Y-42463D01*
X61462Y-42061D01*
X61680Y-41535D01*
X61681Y-40966D01*
X61681Y-51654D01*
X61105Y-51654D01*
X61013Y-51692D01*
X60943Y-51763D01*
X60905Y-51855D01*
X60904Y-51954D01*
X60904Y-52644D01*
X60942Y-52736D01*
X61013Y-52806D01*
X61065Y-52828D01*
X61036Y-52857D01*
X61081Y-52902D01*
X60981Y-52935D01*
X60900Y-53157D01*
X60910Y-53393D01*
X60981Y-53564D01*
X61081Y-53597D01*
X61429Y-53250D01*
X61423Y-53244D01*
X61494Y-53173D01*
X61500Y-53179D01*
X61505Y-53173D01*
X61576Y-53244D01*
X61570Y-53250D01*
X61576Y-53255D01*
X61505Y-53326D01*
X61500Y-53320D01*
X61429Y-53391D01*
X61152Y-53668D01*
X61185Y-53768D01*
X61407Y-53849D01*
X61643Y-53839D01*
X61712Y-53810D01*
X61707Y-53835D01*
X61658Y-53909D01*
X61585Y-53958D01*
X61473Y-53980D01*
X60675Y-53980D01*
X60675Y-46665D01*
X60610Y-46509D01*
X60549Y-46448D01*
X60549Y-44830D01*
X60538Y-44614D01*
X60477Y-44465D01*
X60382Y-44438D01*
X60311Y-44509D01*
X60311Y-44367D01*
X60284Y-44272D01*
X60080Y-44200D01*
X59864Y-44211D01*
X59715Y-44272D01*
X59688Y-44367D01*
X60000Y-44679D01*
X60311Y-44367D01*
X60311Y-44509D01*
X60070Y-44750D01*
X60382Y-45061D01*
X60477Y-45034D01*
X60549Y-44830D01*
X60549Y-46448D01*
X60491Y-46389D01*
X60334Y-46325D01*
X60311Y-46325D01*
X60311Y-45132D01*
X60000Y-44820D01*
X59929Y-44891D01*
X59929Y-44750D01*
X59617Y-44438D01*
X59522Y-44465D01*
X59450Y-44669D01*
X59461Y-44885D01*
X59522Y-45034D01*
X59617Y-45061D01*
X59929Y-44750D01*
X59929Y-44891D01*
X59688Y-45132D01*
X59715Y-45227D01*
X59919Y-45299D01*
X60135Y-45288D01*
X60284Y-45227D01*
X60311Y-45132D01*
X60311Y-46325D01*
X60165Y-46324D01*
X60061Y-46368D01*
X60057Y-46358D01*
X59986Y-46288D01*
X59894Y-46250D01*
X59795Y-46249D01*
X59605Y-46249D01*
X59513Y-46287D01*
X59500Y-46301D01*
X59486Y-46287D01*
X59394Y-46249D01*
X59360Y-46250D01*
X59297Y-46312D01*
X59297Y-46800D01*
X59307Y-46800D01*
X59307Y-46900D01*
X59297Y-46900D01*
X59297Y-47387D01*
X59360Y-47450D01*
X59394Y-47450D01*
X59486Y-47412D01*
X59499Y-47398D01*
X59513Y-47411D01*
X59605Y-47449D01*
X59704Y-47450D01*
X59894Y-47450D01*
X59986Y-47412D01*
X60056Y-47341D01*
X60094Y-47249D01*
X60095Y-47150D01*
X60095Y-47150D01*
X60105Y-47150D01*
X60165Y-47174D01*
X60334Y-47175D01*
X60490Y-47110D01*
X60610Y-46991D01*
X60674Y-46834D01*
X60675Y-46665D01*
X60675Y-53980D01*
X60545Y-53980D01*
X60545Y-50142D01*
X60462Y-49941D01*
X60309Y-49788D01*
X60108Y-49705D01*
X60100Y-49705D01*
X60100Y-49150D01*
X60095Y-49125D01*
X60095Y-48750D01*
X60057Y-48658D01*
X59986Y-48588D01*
X59894Y-48550D01*
X59795Y-48549D01*
X59605Y-48549D01*
X59513Y-48587D01*
X59500Y-48601D01*
X59486Y-48587D01*
X59394Y-48549D01*
X59360Y-48550D01*
X59297Y-48612D01*
X59297Y-49100D01*
X59307Y-49100D01*
X59307Y-49200D01*
X59297Y-49200D01*
X59297Y-49687D01*
X59360Y-49750D01*
X59394Y-49750D01*
X59400Y-49747D01*
X59400Y-50000D01*
X59426Y-50133D01*
X59455Y-50176D01*
X59455Y-50176D01*
X59454Y-50357D01*
X59537Y-50558D01*
X59690Y-50711D01*
X59891Y-50794D01*
X60107Y-50795D01*
X60308Y-50712D01*
X60461Y-50559D01*
X60544Y-50358D01*
X60545Y-50142D01*
X60545Y-53980D01*
X60028Y-53980D01*
X60028Y-52134D01*
X60028Y-51865D01*
X59968Y-51721D01*
X59826Y-51563D01*
X59634Y-51471D01*
X59550Y-51519D01*
X59550Y-51950D01*
X59979Y-51950D01*
X60028Y-51865D01*
X60028Y-52134D01*
X59979Y-52050D01*
X59550Y-52050D01*
X59550Y-52480D01*
X59634Y-52528D01*
X59826Y-52436D01*
X59968Y-52278D01*
X60028Y-52134D01*
X60028Y-53980D01*
X59450Y-53980D01*
X59450Y-52480D01*
X59450Y-52050D01*
X59442Y-52050D01*
X59442Y-51950D01*
X59450Y-51950D01*
X59450Y-51519D01*
X59365Y-51471D01*
X59173Y-51563D01*
X59045Y-51706D01*
X59045Y-51655D01*
X59007Y-51563D01*
X58936Y-51493D01*
X58844Y-51455D01*
X58745Y-51454D01*
X58155Y-51454D01*
X58063Y-51492D01*
X57993Y-51563D01*
X57955Y-51655D01*
X57954Y-51754D01*
X57954Y-52344D01*
X57992Y-52436D01*
X58063Y-52506D01*
X58155Y-52544D01*
X58254Y-52545D01*
X58844Y-52545D01*
X58936Y-52507D01*
X59006Y-52436D01*
X59044Y-52344D01*
X59045Y-52293D01*
X59173Y-52436D01*
X59365Y-52528D01*
X59450Y-52480D01*
X59450Y-53980D01*
X57181Y-53980D01*
X57181Y-52216D01*
X56963Y-51690D01*
X56561Y-51287D01*
X56035Y-51069D01*
X55466Y-51068D01*
X54940Y-51286D01*
X54537Y-51688D01*
X54319Y-52214D01*
X54318Y-52783D01*
X54536Y-53309D01*
X54938Y-53712D01*
X55464Y-53930D01*
X56033Y-53931D01*
X56559Y-53713D01*
X56962Y-53311D01*
X57180Y-52785D01*
X57181Y-52216D01*
X57181Y-53980D01*
X54527Y-53980D01*
X54414Y-53957D01*
X54340Y-53908D01*
X54291Y-53835D01*
X54269Y-53723D01*
X54269Y-50503D01*
X54364Y-50646D01*
X54541Y-50764D01*
X54750Y-50805D01*
X54958Y-50764D01*
X55135Y-50646D01*
X55250Y-50474D01*
X55364Y-50646D01*
X55541Y-50764D01*
X55750Y-50805D01*
X55958Y-50764D01*
X56135Y-50646D01*
X56250Y-50474D01*
X56364Y-50646D01*
X56541Y-50764D01*
X56750Y-50805D01*
X56958Y-50764D01*
X57135Y-50646D01*
X57253Y-50469D01*
X57295Y-50260D01*
X57295Y-50239D01*
X57253Y-50030D01*
X57135Y-49853D01*
X57129Y-49850D01*
X57629Y-49850D01*
X57538Y-49940D01*
X57455Y-50141D01*
X57454Y-50357D01*
X57537Y-50558D01*
X57690Y-50711D01*
X57891Y-50794D01*
X58107Y-50795D01*
X58308Y-50712D01*
X58461Y-50559D01*
X58544Y-50358D01*
X58545Y-50176D01*
X58545Y-50176D01*
X58573Y-50133D01*
X58600Y-50000D01*
X58600Y-49747D01*
X58605Y-49749D01*
X58704Y-49750D01*
X58894Y-49750D01*
X58986Y-49712D01*
X59000Y-49698D01*
X59013Y-49712D01*
X59105Y-49750D01*
X59140Y-49750D01*
X59202Y-49687D01*
X59202Y-49200D01*
X59192Y-49200D01*
X59192Y-49100D01*
X59202Y-49100D01*
X59202Y-48612D01*
X59202Y-47387D01*
X59202Y-46900D01*
X59202Y-46800D01*
X59202Y-46312D01*
X59140Y-46250D01*
X59105Y-46249D01*
X59013Y-46287D01*
X59000Y-46301D01*
X58986Y-46287D01*
X58894Y-46249D01*
X58860Y-46250D01*
X58797Y-46312D01*
X58797Y-46800D01*
X58967Y-46800D01*
X59032Y-46800D01*
X59202Y-46800D01*
X59202Y-46900D01*
X59032Y-46900D01*
X58967Y-46900D01*
X58797Y-46900D01*
X58797Y-47387D01*
X58860Y-47450D01*
X58894Y-47450D01*
X58986Y-47412D01*
X59000Y-47398D01*
X59013Y-47412D01*
X59105Y-47450D01*
X59140Y-47450D01*
X59202Y-47387D01*
X59202Y-48612D01*
X59140Y-48550D01*
X59105Y-48549D01*
X59100Y-48552D01*
X59100Y-48500D01*
X59073Y-48366D01*
X58997Y-48252D01*
X58883Y-48176D01*
X58750Y-48150D01*
X58702Y-48150D01*
X58702Y-47387D01*
X58702Y-46900D01*
X58692Y-46900D01*
X58692Y-46800D01*
X58702Y-46800D01*
X58702Y-46312D01*
X58640Y-46250D01*
X58605Y-46249D01*
X58600Y-46252D01*
X58600Y-45000D01*
X58573Y-44866D01*
X58544Y-44823D01*
X58544Y-44823D01*
X58545Y-44642D01*
X58462Y-44441D01*
X58309Y-44288D01*
X58108Y-44205D01*
X57892Y-44204D01*
X57691Y-44287D01*
X57538Y-44440D01*
X57455Y-44641D01*
X57454Y-44857D01*
X57537Y-45058D01*
X57690Y-45211D01*
X57891Y-45294D01*
X57900Y-45294D01*
X57900Y-46850D01*
X57904Y-46874D01*
X57904Y-47249D01*
X57942Y-47341D01*
X58013Y-47411D01*
X58105Y-47449D01*
X58204Y-47450D01*
X58394Y-47450D01*
X58486Y-47412D01*
X58500Y-47398D01*
X58513Y-47412D01*
X58605Y-47450D01*
X58640Y-47450D01*
X58702Y-47387D01*
X58702Y-48150D01*
X57750Y-48150D01*
X57616Y-48176D01*
X57502Y-48252D01*
X57426Y-48366D01*
X57400Y-48500D01*
X57400Y-49150D01*
X57295Y-49150D01*
X57295Y-46260D01*
X57295Y-46239D01*
X57253Y-46030D01*
X57135Y-45853D01*
X56979Y-45750D01*
X57135Y-45646D01*
X57253Y-45469D01*
X57295Y-45260D01*
X57295Y-45239D01*
X57295Y-41260D01*
X57295Y-41239D01*
X57253Y-41030D01*
X57135Y-40853D01*
X56958Y-40735D01*
X56750Y-40694D01*
X56541Y-40735D01*
X56364Y-40853D01*
X56250Y-41025D01*
X56135Y-40853D01*
X55958Y-40735D01*
X55750Y-40694D01*
X55541Y-40735D01*
X55364Y-40853D01*
X55246Y-41030D01*
X55205Y-41239D01*
X55205Y-41260D01*
X55246Y-41469D01*
X55364Y-41646D01*
X55541Y-41764D01*
X55750Y-41805D01*
X55958Y-41764D01*
X56135Y-41646D01*
X56250Y-41474D01*
X56364Y-41646D01*
X56541Y-41764D01*
X56750Y-41805D01*
X56958Y-41764D01*
X57135Y-41646D01*
X57253Y-41469D01*
X57295Y-41260D01*
X57295Y-45239D01*
X57253Y-45030D01*
X57135Y-44853D01*
X56958Y-44735D01*
X56750Y-44694D01*
X56541Y-44735D01*
X56364Y-44853D01*
X56250Y-45025D01*
X56135Y-44853D01*
X55958Y-44735D01*
X55750Y-44694D01*
X55541Y-44735D01*
X55364Y-44853D01*
X55246Y-45030D01*
X55205Y-45239D01*
X55205Y-45260D01*
X55246Y-45469D01*
X55364Y-45646D01*
X55520Y-45750D01*
X55364Y-45853D01*
X55246Y-46030D01*
X55243Y-46043D01*
X55186Y-45923D01*
X55099Y-45845D01*
X55028Y-45781D01*
X54884Y-45721D01*
X54800Y-45770D01*
X54800Y-46200D01*
X54807Y-46200D01*
X54807Y-46300D01*
X54800Y-46300D01*
X54800Y-46729D01*
X54884Y-46778D01*
X55028Y-46718D01*
X55186Y-46576D01*
X55243Y-46456D01*
X55246Y-46469D01*
X55364Y-46646D01*
X55541Y-46764D01*
X55750Y-46805D01*
X55958Y-46764D01*
X56135Y-46646D01*
X56250Y-46474D01*
X56364Y-46646D01*
X56541Y-46764D01*
X56750Y-46805D01*
X56958Y-46764D01*
X57135Y-46646D01*
X57253Y-46469D01*
X57295Y-46260D01*
X57295Y-49150D01*
X56000Y-49150D01*
X55866Y-49176D01*
X55752Y-49252D01*
X55752Y-49252D01*
X55502Y-49502D01*
X55426Y-49616D01*
X55400Y-49750D01*
X55400Y-49830D01*
X55364Y-49853D01*
X55250Y-50025D01*
X55135Y-49853D01*
X54958Y-49735D01*
X54750Y-49694D01*
X54541Y-49735D01*
X54364Y-49853D01*
X54269Y-49996D01*
X54269Y-46484D01*
X54313Y-46576D01*
X54471Y-46718D01*
X54615Y-46778D01*
X54700Y-46729D01*
X54700Y-46300D01*
X54692Y-46300D01*
X54692Y-46200D01*
X54700Y-46200D01*
X54700Y-45770D01*
X54615Y-45721D01*
X54471Y-45781D01*
X54313Y-45923D01*
X54269Y-46015D01*
X54269Y-43799D01*
X54407Y-43849D01*
X54643Y-43839D01*
X54814Y-43768D01*
X54847Y-43668D01*
X54500Y-43320D01*
X54494Y-43326D01*
X54423Y-43255D01*
X54429Y-43250D01*
X54423Y-43244D01*
X54494Y-43173D01*
X54500Y-43179D01*
X54505Y-43173D01*
X54576Y-43244D01*
X54570Y-43250D01*
X54918Y-43597D01*
X55018Y-43564D01*
X55099Y-43342D01*
X55089Y-43106D01*
X55018Y-42935D01*
X54918Y-42902D01*
X54963Y-42857D01*
X54934Y-42828D01*
X54986Y-42807D01*
X55056Y-42736D01*
X55094Y-42644D01*
X55095Y-42545D01*
X55095Y-41855D01*
X55057Y-41763D01*
X54986Y-41693D01*
X54894Y-41655D01*
X54795Y-41654D01*
X54269Y-41654D01*
X54269Y-40298D01*
X54381Y-40344D01*
X54617Y-40345D01*
X54836Y-40254D01*
X55004Y-40087D01*
X55094Y-39868D01*
X55095Y-39632D01*
X55004Y-39413D01*
X54861Y-39269D01*
X58138Y-39269D01*
X57995Y-39412D01*
X57905Y-39631D01*
X57904Y-39867D01*
X57995Y-40086D01*
X58162Y-40254D01*
X58381Y-40344D01*
X58617Y-40345D01*
X58836Y-40254D01*
X59004Y-40087D01*
X59094Y-39868D01*
X59095Y-39632D01*
X59004Y-39413D01*
X58861Y-39269D01*
X61473Y-39269D01*
X61585Y-39291D01*
X61658Y-39340D01*
X61707Y-39414D01*
X61730Y-39527D01*
X61730Y-51654D01*
X61730Y-51654D01*
G37*
G54D20*
X61730Y-51654D02*
X61681Y-51654D01*
X61681Y-40966D01*
X61463Y-40440D01*
X61061Y-40037D01*
X60535Y-39819D01*
X59966Y-39818D01*
X59440Y-40036D01*
X59037Y-40438D01*
X58819Y-40964D01*
X58818Y-41533D01*
X59036Y-42059D01*
X59438Y-42462D01*
X59964Y-42680D01*
X60533Y-42681D01*
X61059Y-42463D01*
X61462Y-42061D01*
X61680Y-41535D01*
X61681Y-40966D01*
X61681Y-51654D01*
X61105Y-51654D01*
X61013Y-51692D01*
X60943Y-51763D01*
X60905Y-51855D01*
X60904Y-51954D01*
X60904Y-52644D01*
X60942Y-52736D01*
X61013Y-52806D01*
X61065Y-52828D01*
X61036Y-52857D01*
X61081Y-52902D01*
X60981Y-52935D01*
X60900Y-53157D01*
X60910Y-53393D01*
X60981Y-53564D01*
X61081Y-53597D01*
X61429Y-53250D01*
X61423Y-53244D01*
X61494Y-53173D01*
X61500Y-53179D01*
X61505Y-53173D01*
X61576Y-53244D01*
X61570Y-53250D01*
X61576Y-53255D01*
X61505Y-53326D01*
X61500Y-53320D01*
X61429Y-53391D01*
X61152Y-53668D01*
X61185Y-53768D01*
X61407Y-53849D01*
X61643Y-53839D01*
X61712Y-53810D01*
X61707Y-53835D01*
X61658Y-53909D01*
X61585Y-53958D01*
X61473Y-53980D01*
X60675Y-53980D01*
X60675Y-46665D01*
X60610Y-46509D01*
X60549Y-46448D01*
X60549Y-44830D01*
X60538Y-44614D01*
X60477Y-44465D01*
X60382Y-44438D01*
X60311Y-44509D01*
X60311Y-44367D01*
X60284Y-44272D01*
X60080Y-44200D01*
X59864Y-44211D01*
X59715Y-44272D01*
X59688Y-44367D01*
X60000Y-44679D01*
X60311Y-44367D01*
X60311Y-44509D01*
X60070Y-44750D01*
X60382Y-45061D01*
X60477Y-45034D01*
X60549Y-44830D01*
X60549Y-46448D01*
X60491Y-46389D01*
X60334Y-46325D01*
X60311Y-46325D01*
X60311Y-45132D01*
X60000Y-44820D01*
X59929Y-44891D01*
X59929Y-44750D01*
X59617Y-44438D01*
X59522Y-44465D01*
X59450Y-44669D01*
X59461Y-44885D01*
X59522Y-45034D01*
X59617Y-45061D01*
X59929Y-44750D01*
X59929Y-44891D01*
X59688Y-45132D01*
X59715Y-45227D01*
X59919Y-45299D01*
X60135Y-45288D01*
X60284Y-45227D01*
X60311Y-45132D01*
X60311Y-46325D01*
X60165Y-46324D01*
X60061Y-46368D01*
X60057Y-46358D01*
X59986Y-46288D01*
X59894Y-46250D01*
X59795Y-46249D01*
X59605Y-46249D01*
X59513Y-46287D01*
X59500Y-46301D01*
X59486Y-46287D01*
X59394Y-46249D01*
X59360Y-46250D01*
X59297Y-46312D01*
X59297Y-46800D01*
X59307Y-46800D01*
X59307Y-46900D01*
X59297Y-46900D01*
X59297Y-47387D01*
X59360Y-47450D01*
X59394Y-47450D01*
X59486Y-47412D01*
X59499Y-47398D01*
X59513Y-47411D01*
X59605Y-47449D01*
X59704Y-47450D01*
X59894Y-47450D01*
X59986Y-47412D01*
X60056Y-47341D01*
X60094Y-47249D01*
X60095Y-47150D01*
X60095Y-47150D01*
X60105Y-47150D01*
X60165Y-47174D01*
X60334Y-47175D01*
X60490Y-47110D01*
X60610Y-46991D01*
X60674Y-46834D01*
X60675Y-46665D01*
X60675Y-53980D01*
X60545Y-53980D01*
X60545Y-50142D01*
X60462Y-49941D01*
X60309Y-49788D01*
X60108Y-49705D01*
X60100Y-49705D01*
X60100Y-49150D01*
X60095Y-49125D01*
X60095Y-48750D01*
X60057Y-48658D01*
X59986Y-48588D01*
X59894Y-48550D01*
X59795Y-48549D01*
X59605Y-48549D01*
X59513Y-48587D01*
X59500Y-48601D01*
X59486Y-48587D01*
X59394Y-48549D01*
X59360Y-48550D01*
X59297Y-48612D01*
X59297Y-49100D01*
X59307Y-49100D01*
X59307Y-49200D01*
X59297Y-49200D01*
X59297Y-49687D01*
X59360Y-49750D01*
X59394Y-49750D01*
X59400Y-49747D01*
X59400Y-50000D01*
X59426Y-50133D01*
X59455Y-50176D01*
X59455Y-50176D01*
X59454Y-50357D01*
X59537Y-50558D01*
X59690Y-50711D01*
X59891Y-50794D01*
X60107Y-50795D01*
X60308Y-50712D01*
X60461Y-50559D01*
X60544Y-50358D01*
X60545Y-50142D01*
X60545Y-53980D01*
X60028Y-53980D01*
X60028Y-52134D01*
X60028Y-51865D01*
X59968Y-51721D01*
X59826Y-51563D01*
X59634Y-51471D01*
X59550Y-51519D01*
X59550Y-51950D01*
X59979Y-51950D01*
X60028Y-51865D01*
X60028Y-52134D01*
X59979Y-52050D01*
X59550Y-52050D01*
X59550Y-52480D01*
X59634Y-52528D01*
X59826Y-52436D01*
X59968Y-52278D01*
X60028Y-52134D01*
X60028Y-53980D01*
X59450Y-53980D01*
X59450Y-52480D01*
X59450Y-52050D01*
X59442Y-52050D01*
X59442Y-51950D01*
X59450Y-51950D01*
X59450Y-51519D01*
X59365Y-51471D01*
X59173Y-51563D01*
X59045Y-51706D01*
X59045Y-51655D01*
X59007Y-51563D01*
X58936Y-51493D01*
X58844Y-51455D01*
X58745Y-51454D01*
X58155Y-51454D01*
X58063Y-51492D01*
X57993Y-51563D01*
X57955Y-51655D01*
X57954Y-51754D01*
X57954Y-52344D01*
X57992Y-52436D01*
X58063Y-52506D01*
X58155Y-52544D01*
X58254Y-52545D01*
X58844Y-52545D01*
X58936Y-52507D01*
X59006Y-52436D01*
X59044Y-52344D01*
X59045Y-52293D01*
X59173Y-52436D01*
X59365Y-52528D01*
X59450Y-52480D01*
X59450Y-53980D01*
X57181Y-53980D01*
X57181Y-52216D01*
X56963Y-51690D01*
X56561Y-51287D01*
X56035Y-51069D01*
X55466Y-51068D01*
X54940Y-51286D01*
X54537Y-51688D01*
X54319Y-52214D01*
X54318Y-52783D01*
X54536Y-53309D01*
X54938Y-53712D01*
X55464Y-53930D01*
X56033Y-53931D01*
X56559Y-53713D01*
X56962Y-53311D01*
X57180Y-52785D01*
X57181Y-52216D01*
X57181Y-53980D01*
X54527Y-53980D01*
X54414Y-53957D01*
X54340Y-53908D01*
X54291Y-53835D01*
X54269Y-53723D01*
X54269Y-50503D01*
X54364Y-50646D01*
X54541Y-50764D01*
X54750Y-50805D01*
X54958Y-50764D01*
X55135Y-50646D01*
X55250Y-50474D01*
X55364Y-50646D01*
X55541Y-50764D01*
X55750Y-50805D01*
X55958Y-50764D01*
X56135Y-50646D01*
X56250Y-50474D01*
X56364Y-50646D01*
X56541Y-50764D01*
X56750Y-50805D01*
X56958Y-50764D01*
X57135Y-50646D01*
X57253Y-50469D01*
X57295Y-50260D01*
X57295Y-50239D01*
X57253Y-50030D01*
X57135Y-49853D01*
X57129Y-49850D01*
X57629Y-49850D01*
X57538Y-49940D01*
X57455Y-50141D01*
X57454Y-50357D01*
X57537Y-50558D01*
X57690Y-50711D01*
X57891Y-50794D01*
X58107Y-50795D01*
X58308Y-50712D01*
X58461Y-50559D01*
X58544Y-50358D01*
X58545Y-50176D01*
X58545Y-50176D01*
X58573Y-50133D01*
X58600Y-50000D01*
X58600Y-49747D01*
X58605Y-49749D01*
X58704Y-49750D01*
X58894Y-49750D01*
X58986Y-49712D01*
X59000Y-49698D01*
X59013Y-49712D01*
X59105Y-49750D01*
X59140Y-49750D01*
X59202Y-49687D01*
X59202Y-49200D01*
X59192Y-49200D01*
X59192Y-49100D01*
X59202Y-49100D01*
X59202Y-48612D01*
X59202Y-47387D01*
X59202Y-46900D01*
X59202Y-46800D01*
X59202Y-46312D01*
X59140Y-46250D01*
X59105Y-46249D01*
X59013Y-46287D01*
X59000Y-46301D01*
X58986Y-46287D01*
X58894Y-46249D01*
X58860Y-46250D01*
X58797Y-46312D01*
X58797Y-46800D01*
X58967Y-46800D01*
X59032Y-46800D01*
X59202Y-46800D01*
X59202Y-46900D01*
X59032Y-46900D01*
X58967Y-46900D01*
X58797Y-46900D01*
X58797Y-47387D01*
X58860Y-47450D01*
X58894Y-47450D01*
X58986Y-47412D01*
X59000Y-47398D01*
X59013Y-47412D01*
X59105Y-47450D01*
X59140Y-47450D01*
X59202Y-47387D01*
X59202Y-48612D01*
X59140Y-48550D01*
X59105Y-48549D01*
X59100Y-48552D01*
X59100Y-48500D01*
X59073Y-48366D01*
X58997Y-48252D01*
X58883Y-48176D01*
X58750Y-48150D01*
X58702Y-48150D01*
X58702Y-47387D01*
X58702Y-46900D01*
X58692Y-46900D01*
X58692Y-46800D01*
X58702Y-46800D01*
X58702Y-46312D01*
X58640Y-46250D01*
X58605Y-46249D01*
X58600Y-46252D01*
X58600Y-45000D01*
X58573Y-44866D01*
X58544Y-44823D01*
X58544Y-44823D01*
X58545Y-44642D01*
X58462Y-44441D01*
X58309Y-44288D01*
X58108Y-44205D01*
X57892Y-44204D01*
X57691Y-44287D01*
X57538Y-44440D01*
X57455Y-44641D01*
X57454Y-44857D01*
X57537Y-45058D01*
X57690Y-45211D01*
X57891Y-45294D01*
X57900Y-45294D01*
X57900Y-46850D01*
X57904Y-46874D01*
X57904Y-47249D01*
X57942Y-47341D01*
X58013Y-47411D01*
X58105Y-47449D01*
X58204Y-47450D01*
X58394Y-47450D01*
X58486Y-47412D01*
X58500Y-47398D01*
X58513Y-47412D01*
X58605Y-47450D01*
X58640Y-47450D01*
X58702Y-47387D01*
X58702Y-48150D01*
X57750Y-48150D01*
X57616Y-48176D01*
X57502Y-48252D01*
X57426Y-48366D01*
X57400Y-48500D01*
X57400Y-49150D01*
X57295Y-49150D01*
X57295Y-46260D01*
X57295Y-46239D01*
X57253Y-46030D01*
X57135Y-45853D01*
X56979Y-45750D01*
X57135Y-45646D01*
X57253Y-45469D01*
X57295Y-45260D01*
X57295Y-45239D01*
X57295Y-41260D01*
X57295Y-41239D01*
X57253Y-41030D01*
X57135Y-40853D01*
X56958Y-40735D01*
X56750Y-40694D01*
X56541Y-40735D01*
X56364Y-40853D01*
X56250Y-41025D01*
X56135Y-40853D01*
X55958Y-40735D01*
X55750Y-40694D01*
X55541Y-40735D01*
X55364Y-40853D01*
X55246Y-41030D01*
X55205Y-41239D01*
X55205Y-41260D01*
X55246Y-41469D01*
X55364Y-41646D01*
X55541Y-41764D01*
X55750Y-41805D01*
X55958Y-41764D01*
X56135Y-41646D01*
X56250Y-41474D01*
X56364Y-41646D01*
X56541Y-41764D01*
X56750Y-41805D01*
X56958Y-41764D01*
X57135Y-41646D01*
X57253Y-41469D01*
X57295Y-41260D01*
X57295Y-45239D01*
X57253Y-45030D01*
X57135Y-44853D01*
X56958Y-44735D01*
X56750Y-44694D01*
X56541Y-44735D01*
X56364Y-44853D01*
X56250Y-45025D01*
X56135Y-44853D01*
X55958Y-44735D01*
X55750Y-44694D01*
X55541Y-44735D01*
X55364Y-44853D01*
X55246Y-45030D01*
X55205Y-45239D01*
X55205Y-45260D01*
X55246Y-45469D01*
X55364Y-45646D01*
X55520Y-45750D01*
X55364Y-45853D01*
X55246Y-46030D01*
X55243Y-46043D01*
X55186Y-45923D01*
X55099Y-45845D01*
X55028Y-45781D01*
X54884Y-45721D01*
X54800Y-45770D01*
X54800Y-46200D01*
X54807Y-46200D01*
X54807Y-46300D01*
X54800Y-46300D01*
X54800Y-46729D01*
X54884Y-46778D01*
X55028Y-46718D01*
X55186Y-46576D01*
X55243Y-46456D01*
X55246Y-46469D01*
X55364Y-46646D01*
X55541Y-46764D01*
X55750Y-46805D01*
X55958Y-46764D01*
X56135Y-46646D01*
X56250Y-46474D01*
X56364Y-46646D01*
X56541Y-46764D01*
X56750Y-46805D01*
X56958Y-46764D01*
X57135Y-46646D01*
X57253Y-46469D01*
X57295Y-46260D01*
X57295Y-49150D01*
X56000Y-49150D01*
X55866Y-49176D01*
X55752Y-49252D01*
X55752Y-49252D01*
X55502Y-49502D01*
X55426Y-49616D01*
X55400Y-49750D01*
X55400Y-49830D01*
X55364Y-49853D01*
X55250Y-50025D01*
X55135Y-49853D01*
X54958Y-49735D01*
X54750Y-49694D01*
X54541Y-49735D01*
X54364Y-49853D01*
X54269Y-49996D01*
X54269Y-46484D01*
X54313Y-46576D01*
X54471Y-46718D01*
X54615Y-46778D01*
X54700Y-46729D01*
X54700Y-46300D01*
X54692Y-46300D01*
X54692Y-46200D01*
X54700Y-46200D01*
X54700Y-45770D01*
X54615Y-45721D01*
X54471Y-45781D01*
X54313Y-45923D01*
X54269Y-46015D01*
X54269Y-43799D01*
X54407Y-43849D01*
X54643Y-43839D01*
X54814Y-43768D01*
X54847Y-43668D01*
X54500Y-43320D01*
X54494Y-43326D01*
X54423Y-43255D01*
X54429Y-43250D01*
X54423Y-43244D01*
X54494Y-43173D01*
X54500Y-43179D01*
X54505Y-43173D01*
X54576Y-43244D01*
X54570Y-43250D01*
X54918Y-43597D01*
X55018Y-43564D01*
X55099Y-43342D01*
X55089Y-43106D01*
X55018Y-42935D01*
X54918Y-42902D01*
X54963Y-42857D01*
X54934Y-42828D01*
X54986Y-42807D01*
X55056Y-42736D01*
X55094Y-42644D01*
X55095Y-42545D01*
X55095Y-41855D01*
X55057Y-41763D01*
X54986Y-41693D01*
X54894Y-41655D01*
X54795Y-41654D01*
X54269Y-41654D01*
X54269Y-40298D01*
X54381Y-40344D01*
X54617Y-40345D01*
X54836Y-40254D01*
X55004Y-40087D01*
X55094Y-39868D01*
X55095Y-39632D01*
X55004Y-39413D01*
X54861Y-39269D01*
X58138Y-39269D01*
X57995Y-39412D01*
X57905Y-39631D01*
X57904Y-39867D01*
X57995Y-40086D01*
X58162Y-40254D01*
X58381Y-40344D01*
X58617Y-40345D01*
X58836Y-40254D01*
X59004Y-40087D01*
X59094Y-39868D01*
X59095Y-39632D01*
X59004Y-39413D01*
X58861Y-39269D01*
X61473Y-39269D01*
X61585Y-39291D01*
X61658Y-39340D01*
X61707Y-39414D01*
X61730Y-39527D01*
X61730Y-51654D01*
M02*
