G04 (created by PCBNEW (22-Jun-2014 BZR 4027)-stable) date Sat 24 Feb 2018 09:18:46 AM CST*
%MOIN*%
G04 Gerber Fmt 3.4, Leading zero omitted, Abs format*
%FSLAX34Y34*%
G01*
G70*
G90*
G04 APERTURE LIST*
%ADD10C,0.00590551*%
%ADD11C,0.006*%
G04 APERTURE END LIST*
G54D10*
G54D11*
X61421Y-43285D02*
X61664Y-43285D01*
X61692Y-43271D01*
X61707Y-43257D01*
X61721Y-43228D01*
X61721Y-43185D01*
X61707Y-43157D01*
X61607Y-43285D02*
X61621Y-43257D01*
X61621Y-43199D01*
X61607Y-43171D01*
X61592Y-43157D01*
X61564Y-43142D01*
X61478Y-43142D01*
X61450Y-43157D01*
X61435Y-43171D01*
X61421Y-43199D01*
X61421Y-43257D01*
X61435Y-43285D01*
X61621Y-43428D02*
X61421Y-43428D01*
X61321Y-43428D02*
X61335Y-43414D01*
X61350Y-43428D01*
X61335Y-43442D01*
X61321Y-43428D01*
X61350Y-43428D01*
X61421Y-43528D02*
X61421Y-43642D01*
X61321Y-43571D02*
X61578Y-43571D01*
X61607Y-43585D01*
X61621Y-43614D01*
X61621Y-43642D01*
X61621Y-43742D02*
X61321Y-43742D01*
X61621Y-43871D02*
X61464Y-43871D01*
X61435Y-43857D01*
X61421Y-43828D01*
X61421Y-43785D01*
X61435Y-43757D01*
X61450Y-43742D01*
X61421Y-44142D02*
X61621Y-44142D01*
X61421Y-44014D02*
X61578Y-44014D01*
X61607Y-44028D01*
X61621Y-44057D01*
X61621Y-44099D01*
X61607Y-44128D01*
X61592Y-44142D01*
X61621Y-44285D02*
X61321Y-44285D01*
X61435Y-44285D02*
X61421Y-44314D01*
X61421Y-44371D01*
X61435Y-44399D01*
X61450Y-44414D01*
X61478Y-44428D01*
X61564Y-44428D01*
X61592Y-44414D01*
X61607Y-44399D01*
X61621Y-44371D01*
X61621Y-44314D01*
X61607Y-44285D01*
X61592Y-44557D02*
X61607Y-44571D01*
X61621Y-44557D01*
X61607Y-44542D01*
X61592Y-44557D01*
X61621Y-44557D01*
X61607Y-44828D02*
X61621Y-44800D01*
X61621Y-44742D01*
X61607Y-44714D01*
X61592Y-44700D01*
X61564Y-44685D01*
X61478Y-44685D01*
X61450Y-44700D01*
X61435Y-44714D01*
X61421Y-44742D01*
X61421Y-44800D01*
X61435Y-44828D01*
X61621Y-45000D02*
X61607Y-44971D01*
X61592Y-44957D01*
X61564Y-44942D01*
X61478Y-44942D01*
X61450Y-44957D01*
X61435Y-44971D01*
X61421Y-45000D01*
X61421Y-45042D01*
X61435Y-45071D01*
X61450Y-45085D01*
X61478Y-45100D01*
X61564Y-45100D01*
X61592Y-45085D01*
X61607Y-45071D01*
X61621Y-45042D01*
X61621Y-45000D01*
X61621Y-45228D02*
X61421Y-45228D01*
X61450Y-45228D02*
X61435Y-45242D01*
X61421Y-45271D01*
X61421Y-45314D01*
X61435Y-45342D01*
X61464Y-45357D01*
X61621Y-45357D01*
X61464Y-45357D02*
X61435Y-45371D01*
X61421Y-45400D01*
X61421Y-45442D01*
X61435Y-45471D01*
X61464Y-45485D01*
X61621Y-45485D01*
X61307Y-45842D02*
X61692Y-45585D01*
X61421Y-45942D02*
X61721Y-45942D01*
X61435Y-45942D02*
X61421Y-45971D01*
X61421Y-46028D01*
X61435Y-46057D01*
X61450Y-46071D01*
X61478Y-46085D01*
X61564Y-46085D01*
X61592Y-46071D01*
X61607Y-46057D01*
X61621Y-46028D01*
X61621Y-45971D01*
X61607Y-45942D01*
X61607Y-46328D02*
X61621Y-46300D01*
X61621Y-46242D01*
X61607Y-46214D01*
X61578Y-46200D01*
X61464Y-46200D01*
X61435Y-46214D01*
X61421Y-46242D01*
X61421Y-46300D01*
X61435Y-46328D01*
X61464Y-46342D01*
X61492Y-46342D01*
X61521Y-46200D01*
X61421Y-46471D02*
X61721Y-46471D01*
X61435Y-46471D02*
X61421Y-46500D01*
X61421Y-46557D01*
X61435Y-46585D01*
X61450Y-46600D01*
X61478Y-46614D01*
X61564Y-46614D01*
X61592Y-46600D01*
X61607Y-46585D01*
X61621Y-46557D01*
X61621Y-46500D01*
X61607Y-46471D01*
X61621Y-46871D02*
X61464Y-46871D01*
X61435Y-46857D01*
X61421Y-46828D01*
X61421Y-46771D01*
X61435Y-46742D01*
X61607Y-46871D02*
X61621Y-46842D01*
X61621Y-46771D01*
X61607Y-46742D01*
X61578Y-46728D01*
X61550Y-46728D01*
X61521Y-46742D01*
X61507Y-46771D01*
X61507Y-46842D01*
X61492Y-46871D01*
X61607Y-47000D02*
X61621Y-47028D01*
X61621Y-47085D01*
X61607Y-47114D01*
X61578Y-47128D01*
X61564Y-47128D01*
X61535Y-47114D01*
X61521Y-47085D01*
X61521Y-47042D01*
X61507Y-47014D01*
X61478Y-47000D01*
X61464Y-47000D01*
X61435Y-47014D01*
X61421Y-47042D01*
X61421Y-47085D01*
X61435Y-47114D01*
X61621Y-47300D02*
X61607Y-47271D01*
X61578Y-47257D01*
X61321Y-47257D01*
X61621Y-47542D02*
X61464Y-47542D01*
X61435Y-47528D01*
X61421Y-47500D01*
X61421Y-47442D01*
X61435Y-47414D01*
X61607Y-47542D02*
X61621Y-47514D01*
X61621Y-47442D01*
X61607Y-47414D01*
X61578Y-47400D01*
X61550Y-47400D01*
X61521Y-47414D01*
X61507Y-47442D01*
X61507Y-47514D01*
X61492Y-47542D01*
X61621Y-47685D02*
X61321Y-47685D01*
X61435Y-47685D02*
X61421Y-47714D01*
X61421Y-47771D01*
X61435Y-47800D01*
X61450Y-47814D01*
X61478Y-47828D01*
X61564Y-47828D01*
X61592Y-47814D01*
X61607Y-47800D01*
X61621Y-47771D01*
X61621Y-47714D01*
X61607Y-47685D01*
X61607Y-47942D02*
X61621Y-47971D01*
X61621Y-48028D01*
X61607Y-48057D01*
X61578Y-48071D01*
X61564Y-48071D01*
X61535Y-48057D01*
X61521Y-48028D01*
X61521Y-47985D01*
X61507Y-47957D01*
X61478Y-47942D01*
X61464Y-47942D01*
X61435Y-47957D01*
X61421Y-47985D01*
X61421Y-48028D01*
X61435Y-48057D01*
X61307Y-48414D02*
X61692Y-48157D01*
X61621Y-48557D02*
X61607Y-48528D01*
X61578Y-48514D01*
X61321Y-48514D01*
X61421Y-48628D02*
X61421Y-48742D01*
X61321Y-48671D02*
X61578Y-48671D01*
X61607Y-48685D01*
X61621Y-48714D01*
X61621Y-48742D01*
X61621Y-49000D02*
X61621Y-48828D01*
X61621Y-48914D02*
X61321Y-48914D01*
X61364Y-48885D01*
X61392Y-48857D01*
X61407Y-48828D01*
X61321Y-49100D02*
X61321Y-49300D01*
X61621Y-49171D01*
X61321Y-49542D02*
X61321Y-49485D01*
X61335Y-49457D01*
X61350Y-49442D01*
X61392Y-49414D01*
X61450Y-49400D01*
X61564Y-49400D01*
X61592Y-49414D01*
X61607Y-49428D01*
X61621Y-49457D01*
X61621Y-49514D01*
X61607Y-49542D01*
X61592Y-49557D01*
X61564Y-49571D01*
X61492Y-49571D01*
X61464Y-49557D01*
X61450Y-49542D01*
X61435Y-49514D01*
X61435Y-49457D01*
X61450Y-49428D01*
X61464Y-49414D01*
X61492Y-49400D01*
X61321Y-49671D02*
X61321Y-49857D01*
X61435Y-49757D01*
X61435Y-49800D01*
X61450Y-49828D01*
X61464Y-49842D01*
X61492Y-49857D01*
X61564Y-49857D01*
X61592Y-49842D01*
X61607Y-49828D01*
X61621Y-49800D01*
X61621Y-49714D01*
X61607Y-49685D01*
X61592Y-49671D01*
M02*
