M48
;DRILL file {Pcbnew (22-Jun-2014 BZR 4027)-stable} date Sat 24 Feb 2018 09:16:17 AM CST
;FORMAT={-:-/ absolute / inch / decimal}
FMAT,2
INCH,TZ
T1C0.025
T2C0.032
T3C0.040
T4C0.126
%
G90
G05
M72
T1
X6.025Y-4.675
T2
X5.475Y-4.625
X5.475Y-5.025
X5.575Y-4.125
X5.575Y-4.525
X5.575Y-4.625
X5.575Y-5.025
X5.675Y-4.125
X5.675Y-4.525
X5.675Y-4.625
X5.675Y-5.025
X5.8Y-4.475
X5.8Y-5.025
X5.85Y-5.2
X5.95Y-5.2
X6.Y-4.475
X6.Y-5.025
T3
X5.45Y-3.975
X5.45Y-4.225
X5.45Y-4.325
X5.85Y-3.975
X6.15Y-5.225
X6.15Y-5.325
T4
X5.575Y-5.25
X6.025Y-4.125
T0
M30
